<svg width="21" height="21" viewBox="0 0 21 21" fill="none" xmlns="http://www.w3.org/2000/svg">
<path d="M5.82965 2.00006H17.9996C19.0996 2.00006 19.9996 2.90006 19.9996 4.00006V16.0001C19.9996 16.0501 19.9896 16.1001 19.9796 16.1601L16.5996 12.7801C16.8396 12.5901 16.9996 12.3201 16.9996 12.0001V11.0001H15.4996V11.5001H15.3296L13.4996 9.67006V8.50006H15.4996V9.00006H16.9996V8.00006C16.9996 7.45006 16.5496 7.00006 15.9996 7.00006H12.9996C12.4496 7.00006 11.9996 7.45006 11.9996 8.00006V8.17006L5.82965 2.00006ZM18.7796 20.6101L16.1696 18.0001H3.99965C2.88965 18.0001 1.99965 17.1001 1.99965 16.0001V4.00006C1.99965 3.95006 2.01965 3.90006 2.01965 3.85006L0.389648 2.22006L1.79965 0.810059L20.1796 19.1901L18.7796 20.6101ZM9.99965 11.8301L9.16965 11.0001H8.49965V11.5001H6.49965V8.50006H6.66965L5.39965 7.22006C5.15965 7.41006 4.99965 7.68006 4.99965 8.00006V12.0001C4.99965 12.5501 5.44965 13.0001 5.99965 13.0001H8.99965C9.54965 13.0001 9.99965 12.5501 9.99965 12.0001V11.8301Z" fill="white"/>
</svg>
