<svg width="24" height="22" viewBox="0 0 24 22" fill="none" xmlns="http://www.w3.org/2000/svg">
<path d="M9 15.2778L17.4 9.77778L9 4.27778V15.2778ZM7.2 22V19.5556H2.4C1.74 19.5556 1.175 19.3162 0.705 18.8375C0.235 18.3588 0 17.7833 0 17.1111V2.44444C0 1.77222 0.235 1.19676 0.705 0.718056C1.175 0.239352 1.74 0 2.4 0H21.6C22.26 0 22.825 0.239352 23.295 0.718056C23.765 1.19676 24 1.77222 24 2.44444V17.1111C24 17.7833 23.765 18.3588 23.295 18.8375C22.825 19.3162 22.26 19.5556 21.6 19.5556H16.8V22H7.2ZM2.4 17.1111H21.6V2.44444H2.4V17.1111Z" fill="#949493"/>
</svg>
